<?xml version="1.0" encoding="UTF-8"?>
<svg id="Layer_1" data-name="Layer 1" xmlns="http://www.w3.org/2000/svg" viewBox="0 0 595.28 420.2">
  <defs>
    <style>
      .cls-1 {
        fill: #ff7321;
      }

      .cls-2 {
        fill: #fff;
      }

      .cls-3 {
        fill: #231f20;
      }

      .cls-4 {
        fill: #652d91;
      }
    </style>
  </defs>
  <rect class="cls-4" width="595.28" height="420.2"/>
  <g>
    <path class="cls-2" d="M26.99,232.27v-66.3h49.72v33.15h-.05l-4.1,4.14,4.14,4.14v24.86h-16.57v-24.86h-16.57v24.86h-16.57ZM60.14,190.83v-8.29h-16.57v8.29h16.57Z"/>
    <path class="cls-2" d="M85.01,232.27v-66.3h49.72v16.57h-33.15v8.29h24.86v16.57h-24.86v8.29h33.15v16.57h-49.72Z"/>
    <path class="cls-2" d="M143.02,232.27v-16.57h33.15v-8.29h-33.15v-41.44h49.72v16.57h-33.15v8.29h33.15v41.44h-49.72Z"/>
    <path class="cls-2" d="M201.03,232.27v-66.3h49.72v41.44h-33.15v24.86h-16.57ZM234.18,190.83v-8.29h-16.57v8.29h16.57Z"/>
    <path class="cls-2" d="M259.04,232.27v-66.3h49.72v66.3h-16.57v-24.86h-16.57v24.86h-16.57ZM292.19,190.83v-8.29h-16.57v8.29h16.57Z"/>
    <path class="cls-2" d="M317.05,232.27v-66.3h16.57v49.73h8.29v-33.15h16.57v33.15h8.29v-49.73h16.57v66.3h-66.3Z"/>
    <path class="cls-2" d="M391.64,232.27v-66.3h49.72v66.3h-16.57v-49.72h-16.57v49.72h-16.57Z"/>
  </g>
  <g>
    <path class="cls-1" d="M23.79,293.76v-34.22h21.39l4.28,4.28v25.66l-4.28,4.28h-21.39ZM40.9,285.2v-17.11h-8.55v17.11h8.55Z"/>
    <path class="cls-1" d="M58.52,293.76v-34.22h25.66v17.11h-.03l-2.11,2.14,2.14,2.14v12.83h-8.55v-12.83h-8.55v12.83h-8.55ZM75.63,272.37v-4.28h-8.55v4.28h8.55Z"/>
    <path class="cls-1" d="M93.25,293.76v-34.22h25.66v34.22h-8.55v-12.83h-8.55v12.83h-8.55ZM110.36,272.37v-4.28h-8.55v4.28h8.55Z"/>
    <path class="cls-1" d="M127.98,293.76v-34.22h34.22v34.22h-8.55v-25.66h-4.28v17.11h-8.55v-17.11h-4.28v25.66h-8.55Z"/>
    <path class="cls-1" d="M171.27,293.76v-34.22h34.22v34.22h-8.55v-25.66h-4.28v17.11h-8.55v-17.11h-4.28v25.66h-8.55Z"/>
    <path class="cls-1" d="M214.56,293.76v-34.22h25.66v8.55h-17.11v4.28h12.83v8.55h-12.83v4.28h17.11v8.55h-25.66Z"/>
    <path class="cls-1" d="M249.29,293.76v-34.22h25.66v34.22h-8.55v-25.66h-8.55v25.66h-8.55Z"/>
  </g>
  <rect class="cls-2" x="457.77" y="126.22" width="108.32" height="95.13" rx="10.71" ry="10.71" transform="translate(-25.85 118.44) rotate(-12.88)"/>
  <g>
    <rect class="cls-3" x="496.53" y="163.77" width="35.83" height="29.03" transform="translate(-26.79 119.11) rotate(-12.88)"/>
    <rect class="cls-3" x="532.72" y="169.57" width="22.5" height="27.77" transform="translate(-27.2 125.82) rotate(-12.88)"/>
    <rect class="cls-3" x="478.99" y="181.85" width="22.5" height="27.77" transform="translate(-31.29 114.16) rotate(-12.88)"/>
    <rect class="cls-3" x="475.6" y="147.98" width="17.51" height="21.61" transform="translate(-23.2 111.92) rotate(-12.88)"/>
    <rect class="cls-3" x="525.75" y="136.51" width="17.51" height="21.61" transform="translate(-19.39 122.81) rotate(-12.88)"/>
  </g>
  <path class="cls-2" d="M561.68,262.98l-20.53-3.04c-1.38-.2-2.7.11-3.81.76l1.75-11.8-51.2-7.59-1.77,11.97c-.98-1.07-2.29-1.84-3.83-2.06l-19.26-2.86c-3.56-.53-6.88,1.93-7.4,5.49l-3.97,26.8c-.53,3.56,1.93,6.88,5.49,7.4l19.26,2.86c3.56.53,6.88-1.93,7.4-5.49l.6-4.01,46.61,6.91-.69,4.65c-.48,3.21,1.74,6.2,4.95,6.68l20.53,3.04c3.21.48,6.2-1.74,6.67-4.95l4.16-28.07c.48-3.21-1.74-6.2-4.95-6.67Z"/>
  <polygon points="473.41 266.68 470.24 268.06 467.61 265.82 468.82 257.63 474.63 258.49 473.41 266.68"/>
  <polygon points="466.68 272.08 469.85 270.71 472.48 272.94 471.27 281.14 465.46 280.28 466.68 272.08"/>
  <polygon points="472.75 272.75 471.37 269.58 473.61 266.94 481.8 268.16 480.94 273.96 472.75 272.75"/>
  <polygon points="467.35 266.02 468.72 269.19 466.49 271.82 458.29 270.61 459.15 264.8 467.35 266.02"/>
  <circle cx="549.22" cy="272.65" r="3.79"/>
  <circle cx="546.93" cy="288.07" r="3.79"/>
  <circle cx="555.79" cy="281.51" r="3.79"/>
  <circle cx="540.37" cy="279.22" r="3.79"/>
</svg>